<?xml version="1.0" encoding="UTF-8" standalone="no"?>
<svg
   version="1.0"
   width="50.000023pt"
   height="50.000008pt"
   viewBox="0 0 50.000023 50.000008"
   preserveAspectRatio="xMidYMid"
   id="svg4045"
   sodipodi:docname="minimize.svg"
   inkscape:version="1.2.1 (9c6d41e410, 2022-07-14)"
   xmlns:inkscape="http://www.inkscape.org/namespaces/inkscape"
   xmlns:sodipodi="http://sodipodi.sourceforge.net/DTD/sodipodi-0.dtd"
   xmlns="http://www.w3.org/2000/svg"
   xmlns:svg="http://www.w3.org/2000/svg">
  <defs
     id="defs4049" />
  <sodipodi:namedview
     id="namedview4047"
     pagecolor="#ffffff"
     bordercolor="#000000"
     borderopacity="0.25"
     inkscape:showpageshadow="2"
     inkscape:pageopacity="0.0"
     inkscape:pagecheckerboard="0"
     inkscape:deskcolor="#d1d1d1"
     inkscape:document-units="pt"
     showgrid="false"
     inkscape:zoom="0.4334827"
     inkscape:cx="-690.9157"
     inkscape:cy="583.64498"
     inkscape:window-width="1920"
     inkscape:window-height="1017"
     inkscape:window-x="1912"
     inkscape:window-y="-8"
     inkscape:window-maximized="1"
     inkscape:current-layer="svg4045" />
  <g
     transform="matrix(0.00977759,0,0,-0.00978153,-0.01234987,50.048917)"
     fill="#000000"
     stroke="none"
     id="g4043"
     style="fill:#ffffff">
    <path
       d="M 788,5104 C 449,5043 167,4803 55,4482 -3,4317 -1,4387 3,2519 5,924 7,800 23,740 123,369 386,108 746,23 821,6 907,5 2560,5 c 1653,0 1739,1 1814,18 362,85 638,361 723,723 17,75 18,161 18,1814 0,1653 -1,1739 -18,1814 -85,360 -346,623 -717,723 -61,16 -182,18 -1790,19 -1447,2 -1737,0 -1802,-12 z m 3510,-300 c 190,-38 366,-173 449,-344 77,-158 73,-41 73,-1900 0,-1859 4,-1742 -73,-1900 C 4689,541 4579,431 4460,373 4302,296 4419,300 2560,300 701,300 818,296 660,373 541,431 431,541 373,660 c -77,158 -73,41 -73,1900 0,1859 -4,1742 73,1900 82,168 258,305 442,344 60,12 311,14 1738,15 1473,1 1677,-1 1745,-15 z"
       id="path4039"
       style="fill:#ffffff" />
    <path
       d="m 1055,2696 c -124,-55 -114,-239 15,-277 23,-6 526,-9 1512,-7 1473,3 1477,3 1504,24 50,37 66,68 66,124 0,56 -16,87 -66,124 -27,21 -30,21 -1514,23 -1224,2 -1492,0 -1517,-11 z"
       id="path4041"
       style="fill:#ffffff" />
  </g>
</svg>
