<?xml version="1.0" encoding="UTF-8" standalone="no"?>
<svg
   version="1.0"
   width="67.999985pt"
   height="59.999989pt"
   viewBox="0 0 67.999985 59.999989"
   preserveAspectRatio="xMidYMid"
   id="svg3911"
   sodipodi:docname="eye_2.svg"
   inkscape:version="1.2.1 (9c6d41e410, 2022-07-14)"
   xmlns:inkscape="http://www.inkscape.org/namespaces/inkscape"
   xmlns:sodipodi="http://sodipodi.sourceforge.net/DTD/sodipodi-0.dtd"
   xmlns="http://www.w3.org/2000/svg"
   xmlns:svg="http://www.w3.org/2000/svg">
  <defs
     id="defs3915" />
  <sodipodi:namedview
     id="namedview3913"
     pagecolor="#ffffff"
     bordercolor="#000000"
     borderopacity="0.25"
     inkscape:showpageshadow="2"
     inkscape:pageopacity="0.0"
     inkscape:pagecheckerboard="0"
     inkscape:deskcolor="#d1d1d1"
     inkscape:document-units="pt"
     showgrid="false"
     inkscape:zoom="1.2260742"
     inkscape:cx="231.22581"
     inkscape:cy="156.59737"
     inkscape:window-width="1920"
     inkscape:window-height="1017"
     inkscape:window-x="1912"
     inkscape:window-y="-8"
     inkscape:window-maximized="1"
     inkscape:current-layer="svg3911" />
  <g
     transform="matrix(0.01448925,0,0,-0.02563795,-3.1019784,95.636739)"
     fill="#000000"
     stroke="none"
     id="g3909"
     style="fill:#ffffff">
    <path
       d="m 290,3708 c -82,-56 -99,-140 -44,-219 43,-64 295,-313 408,-404 55,-44 109,-89 122,-100 l 23,-20 -285,-370 C 329,2354 226,2212 220,2187 c -37,-131 134,-243 242,-158 13,11 153,188 312,394 l 287,375 122,-63 c 187,-98 494,-213 640,-240 20,-4 37,-12 37,-17 0,-6 -43,-220 -95,-476 -104,-509 -104,-511 -48,-564 41,-37 66,-48 116,-48 48,0 97,27 128,70 12,16 51,186 114,494 52,259 97,471 99,473 1,2 45,-1 97,-7 121,-13 457,-13 578,0 52,6 96,9 97,7 2,-2 47,-214 99,-473 63,-308 102,-478 114,-494 31,-43 80,-70 128,-70 50,0 75,11 116,48 56,53 56,55 -48,563 -52,255 -95,469 -95,475 0,6 26,16 58,23 222,49 531,178 773,321 56,33 104,60 107,60 4,0 101,-185 215,-410 218,-428 234,-453 302,-466 108,-20 212,75 189,173 -6,27 -293,598 -400,795 l -52,97 116,103 c 154,137 319,321 333,371 18,68 -17,140 -88,176 -28,14 -98,14 -126,-1 -12,-6 -96,-86 -187,-178 -260,-263 -458,-408 -755,-555 -497,-246 -1074,-328 -1645,-234 -584,97 -1097,377 -1524,832 -61,65 -123,125 -138,133 -41,22 -110,18 -148,-8 z"
       id="path3907"
       style="fill:#ffffff" />
  </g>
</svg>
