<?xml version="1.0" encoding="UTF-8" standalone="no"?>
<svg
   xmlns:dc="http://purl.org/dc/elements/1.1/"
   xmlns:cc="http://creativecommons.org/ns#"
   xmlns:rdf="http://www.w3.org/1999/02/22-rdf-syntax-ns#"
   xmlns:svg="http://www.w3.org/2000/svg"
   xmlns="http://www.w3.org/2000/svg"
   xmlns:sodipodi="http://sodipodi.sourceforge.net/DTD/sodipodi-0.dtd"
   xmlns:inkscape="http://www.inkscape.org/namespaces/inkscape"
   inkscape:export-ydpi="95"
   inkscape:export-xdpi="95"
   inkscape:export-filename="C:\Users\ercan\PycharmProjects\airrivals\file\back.png"
   version="1.1"
   id="Capa_1"
   x="0px"
   y="0px"
   viewBox="0 0 25.114 25.11407"
   xml:space="preserve"
   sodipodi:docname="back.svg"
   width="25.114"
   height="25.114071"
   inkscape:version="1.0 (4035a4fb49, 2020-05-01)"><metadata
   id="metadata43"><rdf:RDF><cc:Work
       rdf:about=""><dc:format>image/svg+xml</dc:format><dc:type
         rdf:resource="http://purl.org/dc/dcmitype/StillImage" /><dc:title></dc:title></cc:Work></rdf:RDF></metadata><defs
   id="defs41">
	
	
</defs><sodipodi:namedview
   inkscape:document-rotation="0"
   pagecolor="#ffffff"
   bordercolor="#666666"
   borderopacity="1"
   objecttolerance="10"
   gridtolerance="10"
   guidetolerance="10"
   inkscape:pageopacity="0"
   inkscape:pageshadow="2"
   inkscape:window-width="1920"
   inkscape:window-height="1017"
   id="namedview39"
   showgrid="false"
   fit-margin-top="0"
   fit-margin-left="0"
   fit-margin-right="0"
   fit-margin-bottom="0"
   inkscape:zoom="3.9607394"
   inkscape:cx="80.681695"
   inkscape:cy="34.103956"
   inkscape:window-x="1912"
   inkscape:window-y="-8"
   inkscape:window-maximized="1"
   inkscape:current-layer="Capa_1" />
<g
   transform="translate(3.1176498,156.06488)"
   id="g72"><rect
     style="opacity:0.360248;fill:#0000ff;stroke-width:2.52004;stroke-opacity:0.96347"
     id="rect66"
     width="25.114"
     height="25.114"
     x="-3.1176498"
     y="-156.06483" /><g
     id="g64"
     transform="translate(33.110712,-18.059467)"><path
       style="stroke-width:0.114597"
       id="path2"
       d="m -23.671304,-112.89134 c 6.923843,0 12.556749,-5.63313 12.556749,-12.55709 0,-6.92384 -5.632906,-12.55698 -12.556749,-12.55698 -6.923843,0 -12.556864,5.63314 -12.556864,12.55698 0,6.92396 5.633021,12.55709 12.556864,12.55709 z m 0,-23.39511 c 5.97601,0 10.837792,4.8619 10.837907,10.83802 0,5.97613 -4.861783,10.83802 -10.837907,10.83814 -5.97601,-1.2e-4 -10.837793,-4.86201 -10.837793,-10.83825 0,-5.9759 4.861783,-10.83791 10.837793,-10.83791 z" /><path
       style="stroke-width:0.114597"
       id="path4"
       d="m -25.357601,-120.07016 c 0.335655,0.33554 0.879877,0.33543 1.215417,0 0.33577,-0.33577 0.33577,-0.87987 -1.14e-4,-1.21564 l -3.302689,-3.30258 9.563931,-9.1e-4 c 0.474661,-1.2e-4 0.859364,-0.38482 0.859364,-0.85971 -1.15e-4,-0.47466 -0.384817,-0.85925 -0.859479,-0.85925 l -9.564274,9.2e-4 3.30349,-3.30327 c 0.335655,-0.33565 0.335655,-0.87999 0,-1.21553 -0.167884,-0.16777 -0.387796,-0.25177 -0.607823,-0.25177 -0.219912,0 -0.439823,0.084 -0.607708,0.25166 l -4.770563,4.77045 c -0.161238,0.16112 -0.25177,0.37966 -0.25177,0.6077 1.15e-4,0.22805 0.09065,0.44648 0.251884,0.60794 z" /></g></g>
<g
   id="g8"
   transform="translate(891.04102,-107.59878)">
</g>
<g
   id="g10"
   transform="translate(891.04102,-107.59878)">
</g>
<g
   id="g12"
   transform="translate(891.04102,-107.59878)">
</g>
<g
   id="g14"
   transform="translate(891.04102,-107.59878)">
</g>
<g
   id="g16"
   transform="translate(891.04102,-107.59878)">
</g>
<g
   id="g18"
   transform="translate(891.04102,-107.59878)">
</g>
<g
   id="g20"
   transform="translate(891.04102,-107.59878)">
</g>
<g
   id="g22"
   transform="translate(891.04102,-107.59878)">
</g>
<g
   id="g24"
   transform="translate(891.04102,-107.59878)">
</g>
<g
   id="g26"
   transform="translate(891.04102,-107.59878)">
</g>
<g
   id="g28"
   transform="translate(891.04102,-107.59878)">
</g>
<g
   id="g30"
   transform="translate(891.04102,-107.59878)">
</g>
<g
   id="g32"
   transform="translate(891.04102,-107.59878)">
</g>
<g
   id="g34"
   transform="translate(891.04102,-107.59878)">
</g>
<g
   id="g36"
   transform="translate(891.04102,-107.59878)">
</g>
</svg>
