<?xml version="1.0" encoding="UTF-8" standalone="no"?>
<!-- Created with Inkscape (http://www.inkscape.org/) -->

<svg
   id="svg2810"
   xml:space="preserve"
   height="20.000002"
   width="24.999998"
   version="1.0"
   viewBox="0 0 24.999999 20.000003"
   sodipodi:docname="info.svg"
   inkscape:export-filename="C:\Users\ercan\PycharmProjects\chromerivals_makro_\file\svg\info.png"
   inkscape:export-xdpi="96"
   inkscape:export-ydpi="96"
   inkscape:version="1.1.1 (3bf5ae0d25, 2021-09-20)"
   xmlns:inkscape="http://www.inkscape.org/namespaces/inkscape"
   xmlns:sodipodi="http://sodipodi.sourceforge.net/DTD/sodipodi-0.dtd"
   xmlns:xlink="http://www.w3.org/1999/xlink"
   xmlns="http://www.w3.org/2000/svg"
   xmlns:svg="http://www.w3.org/2000/svg"
   xmlns:rdf="http://www.w3.org/1999/02/22-rdf-syntax-ns#"
   xmlns:cc="http://creativecommons.org/ns#"
   xmlns:dc="http://purl.org/dc/elements/1.1/"><sodipodi:namedview
   id="namedview33"
   pagecolor="#505050"
   bordercolor="#eeeeee"
   borderopacity="1"
   inkscape:pageshadow="0"
   inkscape:pageopacity="0"
   inkscape:pagecheckerboard="0"
   showgrid="false"
   fit-margin-top="0"
   fit-margin-left="0"
   fit-margin-right="0"
   fit-margin-bottom="0"
   inkscape:zoom="3.4666667"
   inkscape:cx="26.25"
   inkscape:cy="46.586538"
   inkscape:window-width="1920"
   inkscape:window-height="1017"
   inkscape:window-x="1912"
   inkscape:window-y="-8"
   inkscape:window-maximized="1"
   inkscape:current-layer="svg2810" /><metadata
   id="metadata2348"><rdf:RDF><cc:Work
       rdf:about=""><dc:format>image/svg+xml</dc:format><dc:type
         rdf:resource="http://purl.org/dc/dcmitype/StillImage" /></cc:Work></rdf:RDF></metadata><defs
   id="defs2836"><linearGradient
   id="linearGradient3850"><stop
     id="stop3852"
     stop-color="#fff"
     stop-opacity=".79381"
     offset="0" /><stop
     id="stop4351"
     stop-color="#fff"
     stop-opacity="0"
     offset=".83784" /><stop
     id="stop3854"
     stop-color="#fff"
     stop-opacity="0"
     offset="1" /></linearGradient>
		<radialGradient
   id="radialGradient2351"
   gradientUnits="userSpaceOnUse"
   cy="240"
   cx="240"
   r="225"><stop
     id="stop6898"
     stop-color="#0083ff"
     stop-opacity="0"
     offset="0" /><stop
     id="stop6900"
     stop-color="#0054ff"
     stop-opacity=".41237"
     offset="1" /></radialGradient>
		<linearGradient
   id="linearGradient2356"
   y2="311.82999"
   gradientUnits="userSpaceOnUse"
   x2="452.60001"
   y1="311.82999"
   x1="27.400999"><stop
     id="stop5816"
     stop-color="#0048cd"
     offset="0" /><stop
     id="stop5818"
     stop-color="#002aa0"
     offset="1" /></linearGradient><linearGradient
   id="linearGradient2359"
   y2="152.75"
   gradientUnits="userSpaceOnUse"
   x2="441.12"
   y1="152.75"
   x1="38.881001"><stop
     id="stop5824"
     stop-color="#5e99dd"
     offset="0" /><stop
     id="stop5826"
     stop-color="#0461c9"
     offset="1" /></linearGradient>
		<radialGradient
   id="radialGradient2376"
   xlink:href="#linearGradient3850"
   gradientUnits="userSpaceOnUse"
   cy="167.5"
   cx="196.07001"
   gradientTransform="matrix(-0.5679,-1.4348,1.4011,-0.55456,-81.877,420.14)"
   r="240" /><radialGradient
   id="radialGradient2379"
   xlink:href="#linearGradient3850"
   gradientUnits="userSpaceOnUse"
   cy="240"
   cx="240"
   r="240" /></defs>
		
	<g
   id="g863"
   transform="scale(0.05208333,0.04166667)"
   inkscape:export-filename="C:\Users\ercan\PycharmProjects\chromerivals_makro_\file\info.png"
   inkscape:export-xdpi="96"
   inkscape:export-ydpi="96"><path
     id="path2818"
     fill="#003fc0"
     d="M 240,0 C 107.66,0 0,107.66 0,240 0,372.34 107.66,480 240,480 372.34,480 480,372.34 480,240 480,107.66 372.34,0 240,0 Z" /><path
     id="path2820"
     fill="#649efa"
     d="M 465,240 C 465,364.07 364.07,465 240,465 115.93,465 15,364.07 15,240 15,115.93 115.93,15 240,15 364.07,15 465,115.93 465,240 Z" /><path
     id="path2826"
     d="m 240,278.09 c 78.17,0 145.31,-44.43 201.12,-107.03 C 412.42,87.569 333.11,27.4 240,27.4 146.89,27.401 67.58,87.569 38.88,171.06 94.69,233.66 161.83,278.09 240,278.09 Z"
     fill="url(#linearGradient2359)"
     style="fill:url(#linearGradient2359)" /><path
     id="path2828"
     d="m 240,278.09 c -78.17,0 -145.31,-44.43 -201.12,-107.03 -7.433,21.63 -11.479,44.82 -11.479,68.94 0,117.23 95.369,212.6 212.6,212.6 117.231,0 212.6,-95.37 212.6,-212.6 0,-24.12 -4.05,-47.31 -11.48,-68.94 -55.81,62.6 -122.95,107.03 -201.12,107.03 z"
     fill="url(#linearGradient2356)"
     style="fill:url(#linearGradient2356)" /><g
     id="layer4"><path
       id="path3848"
       d="M 465,240 C 465,364.07 364.07,465 240,465 115.93,465 15,364.07 15,240 15,115.93 115.93,15 240,15 364.07,15 465,115.93 465,240 Z"
       fill-rule="evenodd"
       fill="url(#radialGradient2376)"
       style="fill:url(#radialGradient2376)" /></g><g
     id="layer3"><path
       id="path3846"
       d="M 240,0 C 107.66,0 0,107.66 0,240 0,372.34 107.66,480 240,480 372.34,480 480,372.34 480,240 480,107.66 372.34,0 240,0 Z"
       fill-rule="evenodd"
       fill="url(#radialGradient2379)"
       style="fill:url(#radialGradient2379)" /></g><g
     id="layer1"><path
       id="path6894"
       d="M 465,240 C 465,364.07 364.07,465 240,465 115.93,465 15,364.07 15,240 15,115.93 115.93,15 240,15 364.07,15 465,115.93 465,240 Z"
       fill-rule="evenodd"
       fill="url(#radialGradient2351)"
       style="fill:url(#radialGradient2351)" /></g><g
     id="layer2"><g
       id="g2831"
       stroke="#0064d4">
				<path
   id="path2833"
   d="m 203.24,253.14 c 0,-30.39 -1,-30.89 -28.9,-34.38 v -16.94 h 107.12 v 157.94 c 0,28.4 2.49,30.89 28.9,33.88 v 19.43 H 174.34 v -19.43 c 26.41,-2.99 28.9,-5.48 28.9,-33.88 z m 81.21,-136.52 c 0,23.92 -18.93,43.35 -43.35,43.35 -23.41,0 -43.34,-19.43 -43.34,-43.35 0,-24.408 19.93,-43.341 43.34,-43.341 24.42,0 43.35,18.933 43.35,43.341 z"
   stroke="#0064d4"
   stroke-width="5"
   fill="#ffffff" />
			</g></g></g></svg>
