<?xml version="1.0" encoding="UTF-8" standalone="no"?>
<svg
   version="1.1"
   id="Layer_1"
   x="0"
   y="0"
   viewBox="0 0 100 100"
   xml:space="preserve"
   sodipodi:docname="istatistik.svg"
   inkscape:version="1.1.1 (3bf5ae0d25, 2021-09-20)"
   xmlns:inkscape="http://www.inkscape.org/namespaces/inkscape"
   xmlns:sodipodi="http://sodipodi.sourceforge.net/DTD/sodipodi-0.dtd"
   xmlns="http://www.w3.org/2000/svg"
   xmlns:svg="http://www.w3.org/2000/svg"
   xmlns:d="https://loading.io/stock/"><defs
     id="defs41" /><sodipodi:namedview
     id="namedview39"
     pagecolor="#505050"
     bordercolor="#eeeeee"
     borderopacity="1"
     inkscape:pageshadow="0"
     inkscape:pageopacity="0"
     inkscape:pagecheckerboard="0"
     showgrid="false"
     inkscape:zoom="5.8831284"
     inkscape:cx="8.1589244"
     inkscape:cy="43.089319"
     inkscape:window-width="1920"
     inkscape:window-height="1017"
     inkscape:window-x="1912"
     inkscape:window-y="-8"
     inkscape:window-maximized="1"
     inkscape:current-layer="Layer_1" /><g
     id="g875"
     transform="matrix(0.29458093,0,0,0.28701271,22.678905,14.27666)"
     inkscape:export-filename="C:\Users\ercan\PycharmProjects\chromerivals_makro_\file\png\istatistik.png"
     inkscape:export-xdpi="96"
     inkscape:export-ydpi="96"><path
       d="M 27.346,81.5 H 19.779 A 2.467,2.467 0 0 1 17.312,79.033 V 62.967 A 2.467,2.467 0 0 1 19.779,60.5 h 7.567 a 2.467,2.467 0 0 1 2.467,2.467 V 79.034 A 2.467,2.467 0 0 1 27.346,81.5 Z"
       fill="#f47e5f"
       stroke="#333333"
       stroke-width="3.5"
       stroke-miterlimit="10"
       id="path2" /><path
       d="M 44.971,81.5 H 37.404 A 2.467,2.467 0 0 1 34.937,79.033 V 41.967 A 2.467,2.467 0 0 1 37.404,39.5 h 7.567 a 2.467,2.467 0 0 1 2.467,2.467 V 79.034 A 2.467,2.467 0 0 1 44.971,81.5 Z"
       fill="#f47e5f"
       stroke="#333333"
       stroke-width="3.5"
       stroke-miterlimit="10"
       id="path4" /><path
       d="m 62.596,81.5 h -7.567 a 2.467,2.467 0 0 1 -2.467,-2.467 v -30.89 a 2.467,2.467 0 0 1 2.467,-2.467 h 7.567 a 2.467,2.467 0 0 1 2.467,2.467 v 30.89 A 2.468,2.468 0 0 1 62.596,81.5 Z"
       fill="#f47e5f"
       stroke="#333333"
       stroke-width="3.5"
       stroke-miterlimit="10"
       id="path6" /><path
       d="M 79.867,81.5 H 73.008 A 2.821,2.821 0 0 1 70.187,78.679 V 21.321 A 2.821,2.821 0 0 1 73.008,18.5 h 6.859 a 2.821,2.821 0 0 1 2.821,2.821 V 78.68 a 2.821,2.821 0 0 1 -2.821,2.82 z"
       fill="#f47e5f"
       stroke="#333333"
       stroke-width="3.5"
       stroke-miterlimit="10"
       id="path8" /><path
       d="m 27.346,60.5 h -3 a 2.467,2.467 0 0 1 2.467,2.467 v 16.067 a 2.467,2.467 0 0 1 -2.467,2.467 h 3 a 2.467,2.467 0 0 0 2.467,-2.467 V 62.967 A 2.468,2.468 0 0 0 27.346,60.5 Z"
       opacity="0.2"
       stroke="#000000"
       stroke-miterlimit="10"
       stroke-width="3.5"
       id="path10" /><path
       d="m 44.971,39.5 h -3 a 2.467,2.467 0 0 1 2.467,2.467 v 37.067 a 2.467,2.467 0 0 1 -2.467,2.467 h 3 a 2.467,2.467 0 0 0 2.467,-2.467 V 41.967 A 2.468,2.468 0 0 0 44.971,39.5 Z"
       opacity="0.2"
       stroke="#000000"
       stroke-miterlimit="10"
       stroke-width="3.5"
       id="path12" /><path
       d="m 62.596,45.676 h -3 a 2.467,2.467 0 0 1 2.467,2.467 v 30.89 A 2.467,2.467 0 0 1 59.596,81.5 h 3 a 2.467,2.467 0 0 0 2.467,-2.467 v -30.89 a 2.468,2.468 0 0 0 -2.467,-2.467 z"
       opacity="0.2"
       stroke="#000000"
       stroke-miterlimit="10"
       stroke-width="3.5"
       id="path14" /><path
       d="m 79.867,18.5 h -3 a 2.821,2.821 0 0 1 2.821,2.821 V 78.68 a 2.821,2.821 0 0 1 -2.821,2.821 h 3 A 2.821,2.821 0 0 0 82.688,78.68 V 21.321 A 2.822,2.822 0 0 0 79.867,18.5 Z"
       opacity="0.2"
       stroke="#000000"
       stroke-miterlimit="10"
       stroke-width="3.5"
       id="path16" /><path
       fill="none"
       stroke="#ffffff"
       stroke-linecap="round"
       stroke-width="3.5"
       stroke-miterlimit="10"
       d="m 75,37.5 v 1.167"
       id="path18" /><path
       fill="none"
       stroke="#ffffff"
       stroke-linecap="round"
       stroke-width="3.5"
       stroke-miterlimit="10"
       d="m 75,23 v 9.167"
       id="path20" /><path
       fill="none"
       stroke="#ffffff"
       stroke-linecap="round"
       stroke-width="3.5"
       stroke-miterlimit="10"
       d="m 57,64.5 v 1.167"
       id="path22" /><path
       fill="none"
       stroke="#ffffff"
       stroke-linecap="round"
       stroke-width="3.5"
       stroke-miterlimit="10"
       d="m 57,50 v 9.167"
       id="path24" /><path
       fill="none"
       stroke="#ffffff"
       stroke-linecap="round"
       stroke-width="3.5"
       stroke-miterlimit="10"
       d="m 39.5,58.5 v 1.167"
       id="path26" /><path
       fill="none"
       stroke="#ffffff"
       stroke-linecap="round"
       stroke-width="3.5"
       stroke-miterlimit="10"
       d="m 39.5,44 v 9.167"
       id="path28" /><path
       fill="none"
       stroke="#ffffff"
       stroke-linecap="round"
       stroke-width="3.5"
       stroke-miterlimit="10"
       d="m 22,73.188 v 0.979"
       id="path30" /><path
       fill="none"
       stroke="#ffffff"
       stroke-linecap="round"
       stroke-width="3.5"
       stroke-miterlimit="10"
       d="m 22,65 v 3.125"
       id="path32" /><path
       d="m 10,78.485 c 4.481,0.244 8.588,-2.438 11.497,-5.623 2.909,-3.186 5.018,-6.956 7.989,-10.091 2.971,-3.135 7.215,-5.686 11.675,-5.213 7.249,0.769 11.205,8.714 18.095,10.951 5.157,1.674 10.835,-0.198 15.683,-2.539 4.848,-2.341 9.626,-5.233 15.06,-5.73"
       fill="none"
       stroke="#333333"
       stroke-linecap="round"
       stroke-width="3.5"
       stroke-miterlimit="10"
       id="path34" /></g><metadata
     id="metadata36">
<d:name>statistics</d:name>
<d:tags>statistics,chart,data visualization,mathematics,calculus,probability,census,data</d:tags>
<d:license>by</d:license>
<d:slug>444aav</d:slug>
</metadata></svg>
