<?xml version="1.0" encoding="UTF-8" standalone="no"?>
<svg
   xmlns:dc="http://purl.org/dc/elements/1.1/"
   xmlns:cc="http://creativecommons.org/ns#"
   xmlns:rdf="http://www.w3.org/1999/02/22-rdf-syntax-ns#"
   xmlns:svg="http://www.w3.org/2000/svg"
   xmlns="http://www.w3.org/2000/svg"
   xmlns:sodipodi="http://sodipodi.sourceforge.net/DTD/sodipodi-0.dtd"
   xmlns:inkscape="http://www.inkscape.org/namespaces/inkscape"
   inkscape:export-ydpi="95"
   inkscape:export-xdpi="95"
   inkscape:export-filename="C:\Users\ercan\PycharmProjects\airrivals\file\reload.png"
   inkscape:version="1.0 (4035a4fb49, 2020-05-01)"
   height="25.114"
   width="25.114"
   sodipodi:docname="reload.svg"
   xml:space="preserve"
   viewBox="0 0 25.114 25.114"
   y="0px"
   x="0px"
   id="Capa_1"
   version="1.1"><metadata
   id="metadata45"><rdf:RDF><cc:Work
       rdf:about=""><dc:format>image/svg+xml</dc:format><dc:type
         rdf:resource="http://purl.org/dc/dcmitype/StillImage" /><dc:title></dc:title></cc:Work></rdf:RDF></metadata><defs
   id="defs43" /><sodipodi:namedview
   inkscape:current-layer="Capa_1"
   inkscape:window-maximized="0"
   inkscape:window-y="0"
   inkscape:window-x="0"
   inkscape:cy="131.83649"
   inkscape:cx="41.301049"
   inkscape:zoom="2.5066567"
   fit-margin-bottom="0"
   fit-margin-right="0"
   fit-margin-left="0"
   fit-margin-top="0"
   showgrid="false"
   id="namedview41"
   inkscape:window-height="480"
   inkscape:window-width="794"
   inkscape:pageshadow="2"
   inkscape:pageopacity="0"
   guidetolerance="10"
   gridtolerance="10"
   objecttolerance="10"
   borderopacity="1"
   bordercolor="#666666"
   pagecolor="#ffffff" />

<g
   transform="translate(41.413621,5.0777159)"
   id="g10">
</g>
<g
   transform="translate(41.413621,5.0777159)"
   id="g12">
</g>
<g
   transform="translate(41.413621,5.0777159)"
   id="g14">
</g>
<g
   transform="translate(41.413621,5.0777159)"
   id="g16">
</g>
<g
   transform="translate(41.413621,5.0777159)"
   id="g18">
</g>
<g
   transform="translate(41.413621,5.0777159)"
   id="g20">
</g>
<g
   transform="translate(41.413621,5.0777159)"
   id="g22">
</g>
<g
   transform="translate(41.413621,5.0777159)"
   id="g24">
</g>
<g
   transform="translate(41.413621,5.0777159)"
   id="g26">
</g>
<g
   transform="translate(41.413621,5.0777159)"
   id="g28">
</g>
<g
   transform="translate(41.413621,5.0777159)"
   id="g30">
</g>
<g
   transform="translate(41.413621,5.0777159)"
   id="g32">
</g>
<g
   transform="translate(41.413621,5.0777159)"
   id="g34">
</g>
<g
   transform="translate(41.413621,5.0777159)"
   id="g36">
</g>
<g
   transform="translate(41.413621,5.0777159)"
   id="g38">
</g>
<g
   transform="translate(41.413621,5.0777159)"
   id="g54"><g
     id="g8"
     transform="matrix(0.0560897,0,0,0.05128329,-42.590521,-5.0777078)">
	<g
   id="g6">
		<path
   d="m 112.156,97.111 c 72.3,-65.4 180.5,-66.4 253.8,-6.7 l -58.1,2.2 c -7.5,0.3 -13.3,6.5 -13,14 0.3,7.3 6.3,13 13.5,13 0.2,0 0.3,0 0.5,0 l 89.2,-3.3 c 7.3,-0.3 13,-6.2 13,-13.5 v -1 c 0,-0.2 0,-0.3 0,-0.5 v -0.1 0 l -3.3,-88.2 c -0.3,-7.5 -6.6,-13.3 -14,-13 -7.5,0.3 -13.3,6.5 -13,14 l 2.1,55.3 c -36.3,-29.7 -81,-46.9 -128.8,-49.3 -59.2,-3 -116.1,17.3 -160,57.1 -60.4,54.7 -86,137.9 -66.8,217.1 1.5,6.2 7,10.3 13.1,10.3 1.1,0 2.1,-0.1 3.2,-0.4 7.2,-1.8 11.7,-9.1 9.9,-16.3 -16.8,-69.6 5.6,-142.7 58.7,-190.7 z"
   id="path2" />
		<path
   d="m 462.456,195.511 c -1.8,-7.2 -9.1,-11.7 -16.3,-9.9 -7.2,1.8 -11.7,9.1 -9.9,16.3 16.9,69.6 -5.6,142.7 -58.7,190.7 -37.3,33.7 -84.1,50.3 -130.7,50.3 -44.5,0 -88.9,-15.1 -124.7,-44.9 l 58.8,-5.3 c 7.4,-0.7 12.9,-7.2 12.2,-14.7 -0.7,-7.5 -7.2,-12.9 -14.7,-12.2 l -88.9,8 c -7.4,0.7 -12.9,7.2 -12.2,14.7 l 8,88.9 c 0.6,7 6.5,12.3 13.4,12.3 0.4,0 0.8,0 1.2,-0.1 7.4,-0.7 12.9,-7.2 12.2,-14.7 l -4.8,-54.1 c 36.3,29.4 80.8,46.5 128.3,48.9 3.8,0.2 7.6,0.3 11.3,0.3 55.1,0 107.5,-20.2 148.7,-57.4 60.4,-54.7 86,-137.8 66.8,-217.1 z"
   id="path4" />
	</g>
</g><rect
     style="opacity:0.360248;fill:#0000ff;stroke-width:1.53679;stroke-opacity:0.96347"
     id="rect47"
     width="25.114"
     height="25.114"
     x="-41.41362"
     y="-5.0777159" /></g></svg>
